<mxfile host="app.diagrams.net" agent="Mozilla/5.0 (Macintosh; Intel Mac OS X 10_15_7) AppleWebKit/537.36 (KHTML, like Gecko) Chrome/128.0.0.0 Safari/537.36" version="24.7.8">
  <diagram name="Page-1" id="Q5xdamIhV4PdrGAKUTWI">
    <mxGraphModel dx="1804" dy="489" grid="1" gridSize="10" guides="1" tooltips="1" connect="1" arrows="1" fold="1" page="1" pageScale="1" pageWidth="850" pageHeight="1100" math="0" shadow="0">
      <root>
        <mxCell id="0" />
        <mxCell id="1" parent="0" />
        <mxCell id="OD9FtLQuHuhSTH7nscFG-36" value="" style="rounded=0;whiteSpace=wrap;html=1;dashed=1;" vertex="1" parent="1">
          <mxGeometry x="-60" y="90" width="220" height="280" as="geometry" />
        </mxCell>
        <mxCell id="OD9FtLQuHuhSTH7nscFG-10" value="" style="rounded=0;whiteSpace=wrap;html=1;dashed=1;" vertex="1" parent="1">
          <mxGeometry x="590" y="90" width="170" height="280" as="geometry" />
        </mxCell>
        <mxCell id="OD9FtLQuHuhSTH7nscFG-9" value="" style="rounded=0;whiteSpace=wrap;html=1;dashed=1;" vertex="1" parent="1">
          <mxGeometry x="190" y="240" width="380" height="130" as="geometry" />
        </mxCell>
        <mxCell id="OD9FtLQuHuhSTH7nscFG-8" value="" style="rounded=0;whiteSpace=wrap;html=1;dashed=1;" vertex="1" parent="1">
          <mxGeometry x="190" y="90" width="380" height="130" as="geometry" />
        </mxCell>
        <mxCell id="OD9FtLQuHuhSTH7nscFG-2" value="" style="shape=cylinder3;whiteSpace=wrap;html=1;boundedLbl=1;backgroundOutline=1;size=15;rotation=90;" vertex="1" parent="1">
          <mxGeometry x="260" y="80" width="60" height="140" as="geometry" />
        </mxCell>
        <mxCell id="OD9FtLQuHuhSTH7nscFG-3" value="" style="shape=cylinder3;whiteSpace=wrap;html=1;boundedLbl=1;backgroundOutline=1;size=15;rotation=90;" vertex="1" parent="1">
          <mxGeometry x="260" y="230" width="60" height="140" as="geometry" />
        </mxCell>
        <mxCell id="OD9FtLQuHuhSTH7nscFG-4" value="" style="shape=cylinder3;whiteSpace=wrap;html=1;boundedLbl=1;backgroundOutline=1;size=15;" vertex="1" parent="1">
          <mxGeometry x="460" y="110" width="60" height="80" as="geometry" />
        </mxCell>
        <mxCell id="OD9FtLQuHuhSTH7nscFG-5" value="" style="shape=cylinder3;whiteSpace=wrap;html=1;boundedLbl=1;backgroundOutline=1;size=15;" vertex="1" parent="1">
          <mxGeometry x="460" y="260" width="60" height="80" as="geometry" />
        </mxCell>
        <mxCell id="OD9FtLQuHuhSTH7nscFG-6" value="Batch View" style="shape=card;whiteSpace=wrap;html=1;" vertex="1" parent="1">
          <mxGeometry x="630" y="131" width="80" height="100" as="geometry" />
        </mxCell>
        <mxCell id="OD9FtLQuHuhSTH7nscFG-7" value="Real time View" style="shape=card;whiteSpace=wrap;html=1;" vertex="1" parent="1">
          <mxGeometry x="630" y="244" width="80" height="100" as="geometry" />
        </mxCell>
        <mxCell id="OD9FtLQuHuhSTH7nscFG-11" value="" style="endArrow=classic;html=1;rounded=0;entryX=0.5;entryY=1;entryDx=0;entryDy=0;entryPerimeter=0;" edge="1" parent="1" target="OD9FtLQuHuhSTH7nscFG-2">
          <mxGeometry width="50" height="50" relative="1" as="geometry">
            <mxPoint x="101" y="217.39068100358418" as="sourcePoint" />
            <mxPoint x="520" y="290" as="targetPoint" />
          </mxGeometry>
        </mxCell>
        <mxCell id="OD9FtLQuHuhSTH7nscFG-12" value="" style="endArrow=classic;html=1;rounded=0;entryX=0.5;entryY=1;entryDx=0;entryDy=0;entryPerimeter=0;" edge="1" parent="1" target="OD9FtLQuHuhSTH7nscFG-3">
          <mxGeometry width="50" height="50" relative="1" as="geometry">
            <mxPoint x="101" y="239.43369175627242" as="sourcePoint" />
            <mxPoint x="520" y="290" as="targetPoint" />
          </mxGeometry>
        </mxCell>
        <mxCell id="OD9FtLQuHuhSTH7nscFG-13" value="" style="endArrow=classic;html=1;rounded=0;exitX=0.5;exitY=0;exitDx=0;exitDy=0;exitPerimeter=0;entryX=0;entryY=0.5;entryDx=0;entryDy=0;entryPerimeter=0;" edge="1" parent="1" source="OD9FtLQuHuhSTH7nscFG-2" target="OD9FtLQuHuhSTH7nscFG-4">
          <mxGeometry width="50" height="50" relative="1" as="geometry">
            <mxPoint x="470" y="340" as="sourcePoint" />
            <mxPoint x="520" y="290" as="targetPoint" />
          </mxGeometry>
        </mxCell>
        <mxCell id="OD9FtLQuHuhSTH7nscFG-14" value="" style="endArrow=classic;html=1;rounded=0;exitX=0.5;exitY=0;exitDx=0;exitDy=0;exitPerimeter=0;entryX=0;entryY=0.5;entryDx=0;entryDy=0;entryPerimeter=0;" edge="1" parent="1" source="OD9FtLQuHuhSTH7nscFG-3" target="OD9FtLQuHuhSTH7nscFG-5">
          <mxGeometry width="50" height="50" relative="1" as="geometry">
            <mxPoint x="470" y="340" as="sourcePoint" />
            <mxPoint x="520" y="290" as="targetPoint" />
          </mxGeometry>
        </mxCell>
        <mxCell id="OD9FtLQuHuhSTH7nscFG-15" value="" style="endArrow=classic;html=1;rounded=0;exitX=1;exitY=0;exitDx=0;exitDy=52.5;exitPerimeter=0;entryX=0;entryY=0;entryDx=0;entryDy=30;entryPerimeter=0;" edge="1" parent="1" source="OD9FtLQuHuhSTH7nscFG-4" target="OD9FtLQuHuhSTH7nscFG-6">
          <mxGeometry width="50" height="50" relative="1" as="geometry">
            <mxPoint x="470" y="340" as="sourcePoint" />
            <mxPoint x="520" y="290" as="targetPoint" />
          </mxGeometry>
        </mxCell>
        <mxCell id="OD9FtLQuHuhSTH7nscFG-16" value="" style="endArrow=classic;html=1;rounded=0;exitX=1;exitY=0;exitDx=0;exitDy=52.5;exitPerimeter=0;entryX=0;entryY=0;entryDx=0;entryDy=65;entryPerimeter=0;" edge="1" parent="1" source="OD9FtLQuHuhSTH7nscFG-5" target="OD9FtLQuHuhSTH7nscFG-7">
          <mxGeometry width="50" height="50" relative="1" as="geometry">
            <mxPoint x="470" y="340" as="sourcePoint" />
            <mxPoint x="520" y="290" as="targetPoint" />
          </mxGeometry>
        </mxCell>
        <mxCell id="OD9FtLQuHuhSTH7nscFG-17" value="" style="shape=actor;whiteSpace=wrap;html=1;" vertex="1" parent="1">
          <mxGeometry x="800" y="190" width="40" height="60" as="geometry" />
        </mxCell>
        <mxCell id="OD9FtLQuHuhSTH7nscFG-18" value="" style="endArrow=classic;html=1;rounded=0;exitX=0;exitY=0.75;exitDx=0;exitDy=0;entryX=1;entryY=0.5;entryDx=0;entryDy=0;entryPerimeter=0;" edge="1" parent="1" source="OD9FtLQuHuhSTH7nscFG-17" target="OD9FtLQuHuhSTH7nscFG-6">
          <mxGeometry width="50" height="50" relative="1" as="geometry">
            <mxPoint x="520" y="340" as="sourcePoint" />
            <mxPoint x="570" y="290" as="targetPoint" />
          </mxGeometry>
        </mxCell>
        <mxCell id="OD9FtLQuHuhSTH7nscFG-19" value="" style="endArrow=classic;html=1;rounded=0;exitX=0;exitY=0.75;exitDx=0;exitDy=0;entryX=1;entryY=0.5;entryDx=0;entryDy=0;entryPerimeter=0;" edge="1" parent="1" source="OD9FtLQuHuhSTH7nscFG-17" target="OD9FtLQuHuhSTH7nscFG-7">
          <mxGeometry width="50" height="50" relative="1" as="geometry">
            <mxPoint x="850" y="240" as="sourcePoint" />
            <mxPoint x="570" y="290" as="targetPoint" />
          </mxGeometry>
        </mxCell>
        <mxCell id="OD9FtLQuHuhSTH7nscFG-20" value="Batch Processing" style="text;html=1;align=center;verticalAlign=middle;whiteSpace=wrap;rounded=0;" vertex="1" parent="1">
          <mxGeometry x="230" y="135" width="100" height="30" as="geometry" />
        </mxCell>
        <mxCell id="OD9FtLQuHuhSTH7nscFG-21" value="Batch Consumption" style="text;html=1;align=center;verticalAlign=middle;whiteSpace=wrap;rounded=0;" vertex="1" parent="1">
          <mxGeometry x="430" y="190" width="110" height="30" as="geometry" />
        </mxCell>
        <mxCell id="OD9FtLQuHuhSTH7nscFG-22" value="Realtime Consumption" style="text;html=1;align=center;verticalAlign=middle;whiteSpace=wrap;rounded=0;" vertex="1" parent="1">
          <mxGeometry x="440" y="340" width="110" height="30" as="geometry" />
        </mxCell>
        <mxCell id="OD9FtLQuHuhSTH7nscFG-23" value="Realtime Processing" style="text;html=1;align=center;verticalAlign=middle;whiteSpace=wrap;rounded=0;" vertex="1" parent="1">
          <mxGeometry x="230" y="285" width="100" height="30" as="geometry" />
        </mxCell>
        <mxCell id="OD9FtLQuHuhSTH7nscFG-26" value="Batch Layer" style="text;html=1;align=center;verticalAlign=middle;whiteSpace=wrap;rounded=0;" vertex="1" parent="1">
          <mxGeometry x="190" y="90" width="80" height="30" as="geometry" />
        </mxCell>
        <mxCell id="OD9FtLQuHuhSTH7nscFG-27" value="Speed Layer" style="text;html=1;align=center;verticalAlign=middle;whiteSpace=wrap;rounded=0;" vertex="1" parent="1">
          <mxGeometry x="190" y="240" width="80" height="30" as="geometry" />
        </mxCell>
        <mxCell id="OD9FtLQuHuhSTH7nscFG-28" value="Serving&amp;nbsp;&lt;span style=&quot;background-color: initial;&quot;&gt;Layer&lt;/span&gt;" style="text;html=1;align=center;verticalAlign=middle;whiteSpace=wrap;rounded=0;" vertex="1" parent="1">
          <mxGeometry x="590" y="90" width="90" height="30" as="geometry" />
        </mxCell>
        <mxCell id="OD9FtLQuHuhSTH7nscFG-29" value="" style="sketch=0;outlineConnect=0;fontColor=#232F3E;gradientColor=none;fillColor=#232F3D;strokeColor=none;dashed=0;verticalLabelPosition=bottom;verticalAlign=top;align=center;html=1;fontSize=12;fontStyle=0;aspect=fixed;pointerEvents=1;shape=mxgraph.aws4.traditional_server;" vertex="1" parent="1">
          <mxGeometry x="50" y="190" width="45" height="78" as="geometry" />
        </mxCell>
        <mxCell id="OD9FtLQuHuhSTH7nscFG-30" value="" style="sketch=0;outlineConnect=0;fontColor=#232F3E;gradientColor=none;fillColor=#232F3D;strokeColor=none;dashed=0;verticalLabelPosition=bottom;verticalAlign=top;align=center;html=1;fontSize=12;fontStyle=0;aspect=fixed;pointerEvents=1;shape=mxgraph.aws4.mobile_client;" vertex="1" parent="1">
          <mxGeometry x="-41" y="95" width="41" height="78" as="geometry" />
        </mxCell>
        <mxCell id="OD9FtLQuHuhSTH7nscFG-31" value="" style="sketch=0;outlineConnect=0;fontColor=#232F3E;gradientColor=none;fillColor=#232F3D;strokeColor=none;dashed=0;verticalLabelPosition=bottom;verticalAlign=top;align=center;html=1;fontSize=12;fontStyle=0;aspect=fixed;pointerEvents=1;shape=mxgraph.aws4.mobile_client;" vertex="1" parent="1">
          <mxGeometry x="-41" y="190" width="41" height="78" as="geometry" />
        </mxCell>
        <mxCell id="OD9FtLQuHuhSTH7nscFG-32" value="" style="sketch=0;outlineConnect=0;fontColor=#232F3E;gradientColor=none;fillColor=#232F3D;strokeColor=none;dashed=0;verticalLabelPosition=bottom;verticalAlign=top;align=center;html=1;fontSize=12;fontStyle=0;aspect=fixed;pointerEvents=1;shape=mxgraph.aws4.mobile_client;" vertex="1" parent="1">
          <mxGeometry x="-42" y="280" width="41" height="78" as="geometry" />
        </mxCell>
        <mxCell id="OD9FtLQuHuhSTH7nscFG-33" value="" style="endArrow=classic;html=1;rounded=0;" edge="1" parent="1" source="OD9FtLQuHuhSTH7nscFG-30" target="OD9FtLQuHuhSTH7nscFG-29">
          <mxGeometry width="50" height="50" relative="1" as="geometry">
            <mxPoint x="340" y="340" as="sourcePoint" />
            <mxPoint x="390" y="290" as="targetPoint" />
          </mxGeometry>
        </mxCell>
        <mxCell id="OD9FtLQuHuhSTH7nscFG-34" value="" style="endArrow=classic;html=1;rounded=0;" edge="1" parent="1" source="OD9FtLQuHuhSTH7nscFG-31" target="OD9FtLQuHuhSTH7nscFG-29">
          <mxGeometry width="50" height="50" relative="1" as="geometry">
            <mxPoint x="340" y="340" as="sourcePoint" />
            <mxPoint x="390" y="290" as="targetPoint" />
          </mxGeometry>
        </mxCell>
        <mxCell id="OD9FtLQuHuhSTH7nscFG-35" value="" style="endArrow=classic;html=1;rounded=0;" edge="1" parent="1" source="OD9FtLQuHuhSTH7nscFG-32" target="OD9FtLQuHuhSTH7nscFG-29">
          <mxGeometry width="50" height="50" relative="1" as="geometry">
            <mxPoint x="340" y="340" as="sourcePoint" />
            <mxPoint x="390" y="290" as="targetPoint" />
          </mxGeometry>
        </mxCell>
        <mxCell id="OD9FtLQuHuhSTH7nscFG-37" value="Ingestion Layer" style="text;html=1;align=center;verticalAlign=middle;whiteSpace=wrap;rounded=0;" vertex="1" parent="1">
          <mxGeometry x="60" y="90" width="100" height="30" as="geometry" />
        </mxCell>
        <mxCell id="OD9FtLQuHuhSTH7nscFG-38" value="Lambda Architecture" style="text;html=1;align=center;verticalAlign=middle;whiteSpace=wrap;rounded=0;" vertex="1" parent="1">
          <mxGeometry x="310" y="390" width="160" height="30" as="geometry" />
        </mxCell>
        <mxCell id="OD9FtLQuHuhSTH7nscFG-39" value="" style="rounded=0;whiteSpace=wrap;html=1;dashed=1;" vertex="1" parent="1">
          <mxGeometry x="-60" y="490" width="220" height="280" as="geometry" />
        </mxCell>
        <mxCell id="OD9FtLQuHuhSTH7nscFG-40" value="" style="rounded=0;whiteSpace=wrap;html=1;dashed=1;" vertex="1" parent="1">
          <mxGeometry x="590" y="490" width="170" height="280" as="geometry" />
        </mxCell>
        <mxCell id="OD9FtLQuHuhSTH7nscFG-41" value="" style="rounded=0;whiteSpace=wrap;html=1;dashed=1;" vertex="1" parent="1">
          <mxGeometry x="190" y="490" width="380" height="280" as="geometry" />
        </mxCell>
        <mxCell id="OD9FtLQuHuhSTH7nscFG-44" value="" style="shape=cylinder3;whiteSpace=wrap;html=1;boundedLbl=1;backgroundOutline=1;size=15;rotation=90;" vertex="1" parent="1">
          <mxGeometry x="340" y="500" width="60" height="140" as="geometry" />
        </mxCell>
        <mxCell id="OD9FtLQuHuhSTH7nscFG-46" value="" style="shape=cylinder3;whiteSpace=wrap;html=1;boundedLbl=1;backgroundOutline=1;size=15;" vertex="1" parent="1">
          <mxGeometry x="345" y="640" width="60" height="80" as="geometry" />
        </mxCell>
        <mxCell id="OD9FtLQuHuhSTH7nscFG-48" value="View" style="shape=card;whiteSpace=wrap;html=1;" vertex="1" parent="1">
          <mxGeometry x="630" y="584" width="80" height="100" as="geometry" />
        </mxCell>
        <mxCell id="OD9FtLQuHuhSTH7nscFG-50" value="" style="endArrow=classic;html=1;rounded=0;entryX=0.5;entryY=1;entryDx=0;entryDy=0;entryPerimeter=0;" edge="1" parent="1" target="OD9FtLQuHuhSTH7nscFG-44">
          <mxGeometry width="50" height="50" relative="1" as="geometry">
            <mxPoint x="101" y="639.4336917562724" as="sourcePoint" />
            <mxPoint x="520" y="690" as="targetPoint" />
          </mxGeometry>
        </mxCell>
        <mxCell id="OD9FtLQuHuhSTH7nscFG-55" value="" style="shape=actor;whiteSpace=wrap;html=1;" vertex="1" parent="1">
          <mxGeometry x="800" y="590" width="40" height="60" as="geometry" />
        </mxCell>
        <mxCell id="OD9FtLQuHuhSTH7nscFG-57" value="" style="endArrow=classic;html=1;rounded=0;exitX=0;exitY=0.75;exitDx=0;exitDy=0;entryX=1;entryY=0.5;entryDx=0;entryDy=0;entryPerimeter=0;" edge="1" parent="1" source="OD9FtLQuHuhSTH7nscFG-55" target="OD9FtLQuHuhSTH7nscFG-48">
          <mxGeometry width="50" height="50" relative="1" as="geometry">
            <mxPoint x="850" y="640" as="sourcePoint" />
            <mxPoint x="570" y="690" as="targetPoint" />
          </mxGeometry>
        </mxCell>
        <mxCell id="OD9FtLQuHuhSTH7nscFG-60" value="Storage" style="text;html=1;align=center;verticalAlign=middle;whiteSpace=wrap;rounded=0;" vertex="1" parent="1">
          <mxGeometry x="325" y="720" width="110" height="30" as="geometry" />
        </mxCell>
        <mxCell id="OD9FtLQuHuhSTH7nscFG-61" value="Stream Processing" style="text;html=1;align=center;verticalAlign=middle;whiteSpace=wrap;rounded=0;" vertex="1" parent="1">
          <mxGeometry x="310" y="555" width="100" height="30" as="geometry" />
        </mxCell>
        <mxCell id="OD9FtLQuHuhSTH7nscFG-63" value="Stream Processing Layer" style="text;html=1;align=center;verticalAlign=middle;whiteSpace=wrap;rounded=0;" vertex="1" parent="1">
          <mxGeometry x="190" y="490" width="160" height="30" as="geometry" />
        </mxCell>
        <mxCell id="OD9FtLQuHuhSTH7nscFG-64" value="Serving&amp;nbsp;&lt;span style=&quot;background-color: initial;&quot;&gt;Layer&lt;/span&gt;" style="text;html=1;align=center;verticalAlign=middle;whiteSpace=wrap;rounded=0;" vertex="1" parent="1">
          <mxGeometry x="590" y="490" width="90" height="30" as="geometry" />
        </mxCell>
        <mxCell id="OD9FtLQuHuhSTH7nscFG-65" value="" style="sketch=0;outlineConnect=0;fontColor=#232F3E;gradientColor=none;fillColor=#232F3D;strokeColor=none;dashed=0;verticalLabelPosition=bottom;verticalAlign=top;align=center;html=1;fontSize=12;fontStyle=0;aspect=fixed;pointerEvents=1;shape=mxgraph.aws4.traditional_server;" vertex="1" parent="1">
          <mxGeometry x="50" y="590" width="45" height="78" as="geometry" />
        </mxCell>
        <mxCell id="OD9FtLQuHuhSTH7nscFG-66" value="" style="sketch=0;outlineConnect=0;fontColor=#232F3E;gradientColor=none;fillColor=#232F3D;strokeColor=none;dashed=0;verticalLabelPosition=bottom;verticalAlign=top;align=center;html=1;fontSize=12;fontStyle=0;aspect=fixed;pointerEvents=1;shape=mxgraph.aws4.mobile_client;" vertex="1" parent="1">
          <mxGeometry x="-41" y="495" width="41" height="78" as="geometry" />
        </mxCell>
        <mxCell id="OD9FtLQuHuhSTH7nscFG-67" value="" style="sketch=0;outlineConnect=0;fontColor=#232F3E;gradientColor=none;fillColor=#232F3D;strokeColor=none;dashed=0;verticalLabelPosition=bottom;verticalAlign=top;align=center;html=1;fontSize=12;fontStyle=0;aspect=fixed;pointerEvents=1;shape=mxgraph.aws4.mobile_client;" vertex="1" parent="1">
          <mxGeometry x="-41" y="590" width="41" height="78" as="geometry" />
        </mxCell>
        <mxCell id="OD9FtLQuHuhSTH7nscFG-68" value="" style="sketch=0;outlineConnect=0;fontColor=#232F3E;gradientColor=none;fillColor=#232F3D;strokeColor=none;dashed=0;verticalLabelPosition=bottom;verticalAlign=top;align=center;html=1;fontSize=12;fontStyle=0;aspect=fixed;pointerEvents=1;shape=mxgraph.aws4.mobile_client;" vertex="1" parent="1">
          <mxGeometry x="-42" y="680" width="41" height="78" as="geometry" />
        </mxCell>
        <mxCell id="OD9FtLQuHuhSTH7nscFG-69" value="" style="endArrow=classic;html=1;rounded=0;" edge="1" parent="1" source="OD9FtLQuHuhSTH7nscFG-66" target="OD9FtLQuHuhSTH7nscFG-65">
          <mxGeometry width="50" height="50" relative="1" as="geometry">
            <mxPoint x="340" y="740" as="sourcePoint" />
            <mxPoint x="390" y="690" as="targetPoint" />
          </mxGeometry>
        </mxCell>
        <mxCell id="OD9FtLQuHuhSTH7nscFG-70" value="" style="endArrow=classic;html=1;rounded=0;" edge="1" parent="1" source="OD9FtLQuHuhSTH7nscFG-67" target="OD9FtLQuHuhSTH7nscFG-65">
          <mxGeometry width="50" height="50" relative="1" as="geometry">
            <mxPoint x="340" y="740" as="sourcePoint" />
            <mxPoint x="390" y="690" as="targetPoint" />
          </mxGeometry>
        </mxCell>
        <mxCell id="OD9FtLQuHuhSTH7nscFG-71" value="" style="endArrow=classic;html=1;rounded=0;" edge="1" parent="1" source="OD9FtLQuHuhSTH7nscFG-68" target="OD9FtLQuHuhSTH7nscFG-65">
          <mxGeometry width="50" height="50" relative="1" as="geometry">
            <mxPoint x="340" y="740" as="sourcePoint" />
            <mxPoint x="390" y="690" as="targetPoint" />
          </mxGeometry>
        </mxCell>
        <mxCell id="OD9FtLQuHuhSTH7nscFG-72" value="Ingestion Layer" style="text;html=1;align=center;verticalAlign=middle;whiteSpace=wrap;rounded=0;" vertex="1" parent="1">
          <mxGeometry x="60" y="490" width="100" height="30" as="geometry" />
        </mxCell>
        <mxCell id="OD9FtLQuHuhSTH7nscFG-73" value="Kappa Architecture" style="text;html=1;align=center;verticalAlign=middle;whiteSpace=wrap;rounded=0;" vertex="1" parent="1">
          <mxGeometry x="310" y="790" width="160" height="30" as="geometry" />
        </mxCell>
        <mxCell id="OD9FtLQuHuhSTH7nscFG-75" value="" style="endArrow=classic;html=1;rounded=0;exitX=0.5;exitY=0;exitDx=0;exitDy=0;exitPerimeter=0;entryX=0;entryY=0;entryDx=0;entryDy=65;entryPerimeter=0;" edge="1" parent="1" source="OD9FtLQuHuhSTH7nscFG-44" target="OD9FtLQuHuhSTH7nscFG-48">
          <mxGeometry width="50" height="50" relative="1" as="geometry">
            <mxPoint x="370" y="730" as="sourcePoint" />
            <mxPoint x="420" y="680" as="targetPoint" />
          </mxGeometry>
        </mxCell>
        <mxCell id="OD9FtLQuHuhSTH7nscFG-76" value="" style="endArrow=classic;startArrow=classic;html=1;rounded=0;entryX=1;entryY=0.5;entryDx=0;entryDy=0;entryPerimeter=0;" edge="1" parent="1" target="OD9FtLQuHuhSTH7nscFG-44">
          <mxGeometry width="50" height="50" relative="1" as="geometry">
            <mxPoint x="370" y="640" as="sourcePoint" />
            <mxPoint x="420" y="680" as="targetPoint" />
          </mxGeometry>
        </mxCell>
      </root>
    </mxGraphModel>
  </diagram>
</mxfile>
